<svg xmlns="http://www.w3.org/2000/svg" width="188.918" height="119.757" viewBox="0 0 188.918 119.757">
  <g id="_01" data-name="01" transform="translate(-1543.743 -434.915)">
    <path id="Path_3053" data-name="Path 3053" d="M2217.805,547.592l2.8-.316a.625.625,0,0,1,.588.282q.244.378.521.74a10.518,10.518,0,0,0,1.11,1.239.617.617,0,0,1,.152.678l-1.074,2.744a.605.605,0,0,0,.3.768l2.414,1.2a.6.6,0,0,0,.768-.213l1.459-2.287a.6.6,0,0,1,.673-.26,10.886,10.886,0,0,0,3.417.34.621.621,0,0,1,.622.431l.495,1.574a.626.626,0,0,0,.712.423l2.621-.53a.535.535,0,0,0,.151-.05.6.6,0,0,0,.335-.614l-.233-2.093-.058-.51a10.727,10.727,0,0,0,1.271-.84,10.923,10.923,0,0,0,1.492-1.381.6.6,0,0,1,.67-.162l2.209.868a.623.623,0,0,0,.787-.3l.914-1.845.26-.529a.631.631,0,0,0-.224-.813l-1.91-1.221a.6.6,0,0,1-.269-.654,10.822,10.822,0,0,0,.291-2.294c.006-.067.006-.129.006-.195a.385.385,0,0,1,0-.065.615.615,0,0,1,.433-.527l2.555-.809a.457.457,0,0,0,.083-.033.626.626,0,0,0,.337-.677l-.524-2.614a.622.622,0,0,0-.679-.5l-2.922.33a.6.6,0,0,1-.6-.316,11.049,11.049,0,0,0-.915-1.4q-.275-.359-.574-.688a.633.633,0,0,1-.119-.656l1.031-2.637a.6.6,0,0,0-.294-.763l-2.39-1.179a.631.631,0,0,0-.814.226l-1.156,1.809a.621.621,0,0,1-.723.256,10.867,10.867,0,0,0-3.3-.592.617.617,0,0,1-.581-.434l-.728-2.3a.638.638,0,0,0-.73-.432l-2.6.521a.61.61,0,0,0-.487.669l.012.122.272,2.432a.625.625,0,0,1-.337.627l0,0a10.811,10.811,0,0,0-1.616,1.027c-.275.212-.535.434-.788.666a.611.611,0,0,1-.644.126l-2.242-.881a.633.633,0,0,0-.8.307l-1.176,2.379a.691.691,0,0,0-.06.209.631.631,0,0,0,.282.59l1.528.971a.63.63,0,0,1,.285.549.653.653,0,0,1-.031.172,10.821,10.821,0,0,0-.55,4.245.61.61,0,0,1-.327.584.662.662,0,0,1-.1.04l-2.07.653a.619.619,0,0,0-.42.71l.011.061.509,2.548A.631.631,0,0,0,2217.805,547.592Zm17.923-7.955a7.213,7.213,0,0,1,.381,1.294,5.692,5.692,0,0,1-.405,3.075c-.042.087-.086.171-.13.255a5.882,5.882,0,0,1-10.9-4.347,3.923,3.923,0,0,1,.214-.529,6.682,6.682,0,0,1,1.337-1.84A5.84,5.84,0,0,1,2235.728,539.636Z" transform="translate(-597.31 -82.415)" fill="#b8e4ff"/>
    <path id="Path_3054" data-name="Path 3054" d="M2733.606,593.757c-2.689-5.421-12-1.71-12-1.71s-4.573,11.33-6.435,11.948,2.019-10.45,2.019-10.45c-3.771.377-12.3,6.785-12.3,6.785s2.92,11.578.963,11.719-2.062-10.384-2.062-10.384c-3.367,1.786-5.88,6.627-5.88,6.627-2.825,7.633,7.121,10.867,7.121,10.867a19.406,19.406,0,0,1-.656,9.187h0a14.084,14.084,0,0,0-.68,2.547l.977-.194c.028-.278.065-.548.114-.81a.005.005,0,0,1,0,0,.1.1,0,0,1,0-.011c.037-.164.09-.4.158-.683h0c.182-.643.3-1.114.364-1.451,0,0,0,0,0,0,.53-2.01,1.342-4.654,2.1-5.325a1.94,1.94,0,0,1-.3-.406l.3.406c2.383,3.249,10.855,2.186,15.321.306s2.175-2.79-.755-4.422-8.07-.028-9.787-.555.385-1.813,3.535-2.191,5.318,2.417,10.426,1.9,7.054-10.706,7.054-10.706c-3.248,1.762-9.833,1.085-10.309-.061s8.738-2.852,10.1-3.495S2736.3,599.177,2733.606,593.757Z" transform="translate(-1024.157 -138.392)" fill="#b8e4ff"/>
    <path id="Path_3055" data-name="Path 3055" d="M1650.548,893.763c-1.095-5.951,8.584-8.56,8.584-8.56s10.449,6.33,12.311,5.709-7.877-7.157-7.877-7.157c3.245-1.958,13.912-1.937,13.912-1.937s4.6,11.019,6.25,9.959-4.57-9.549-4.57-9.549c3.766-.588,8.677,1.782,8.677,1.782,6.836,4.417.81,12.967.81,12.967a19.413,19.413,0,0,0,6.03,6.962h0a14.082,14.082,0,0,1,2.07,1.632l-.9.43q-.282-.309-.577-.58l0,0-.009-.008c-.128-.109-.311-.264-.536-.452h0c-.531-.406-.906-.714-1.161-.944l0,0c-1.629-1.292-3.864-2.921-4.874-3a1.91,1.91,0,0,0-.005-.5c0,.161,0,.328.005.5.039,4.028-7.381,8.254-12.082,9.425s-3.413-.93-2.046-3.992,6.444-4.858,7.5-6.309-1.394-1.221-4.143.364-2.809,5.122-7.209,7.768-12.062-4.345-12.062-4.345c3.656-.535,8.523-5.023,8.217-6.226s-8.7,2.952-10.179,3.253S1651.643,899.714,1650.548,893.763Z" transform="translate(-94.739 -396.735)" fill="#b8e4ff"/>
    <path id="Path_3056" data-name="Path 3056" d="M2735.491,1074.607c4.763-3.733-.759-12.1-.759-12.1s-12.021-2.18-13-3.878,10.642-.143,10.642-.143c-1.134-3.616-9.139-10.667-9.139-10.667s-10.745,5.208-11.28,3.32,9.75-4.126,9.75-4.126c-2.431-2.935-7.681-4.413-7.681-4.413-8.047-1.219-9.2,9.177-9.2,9.177a19.411,19.411,0,0,1-9.129,1.221h0a14.08,14.08,0,0,0-2.631-.149l.387.917c.278-.029.55-.047.817-.052h.017c.168,0,.408.008.7.016h0c.667.048,1.152.066,1.494.062h0c2.076.111,4.829.371,5.641.978a1.906,1.906,0,0,1,.337-.374l-.337.374c-2.7,2.992.062,11.073,2.808,15.064s3.172,1.564,4.177-1.636-1.61-7.908-1.441-9.7,1.854.008,2.862,3.017-1.288,5.7.255,10.594,11.914,4.736,11.914,4.736c-2.384-2.823-3.057-9.409-2.031-10.108s4.566,7.978,5.471,9.18S2730.729,1078.34,2735.491,1074.607Z" transform="translate(-1020.3 -539.381)" fill="#b8e4ff"/>
    <g id="Group_3650" data-name="Group 3650" transform="translate(1671.484 446.53)">
      <path id="Path_3057" data-name="Path 3057" d="M2685.876,557.013s.559-11.15,5.771-18.14a1.24,1.24,0,0,1,2.228.688c0,.019,0,.039,0,.059C2693.94,541.6,2688.168,550.356,2685.876,557.013Z" transform="translate(-2685.406 -538.377)" fill="#b8e4ff" opacity="0.5"/>
      <path id="Path_3058" data-name="Path 3058" d="M2681.684,564.959s4.7-14.212,13.919-20.99a1.315,1.315,0,0,1,1.8.214,2.085,2.085,0,0,1,.213,1.864C2697.017,548.531,2686.824,557.456,2681.684,564.959Z" transform="translate(-2681.684 -543.109)" fill="#b8e4ff" opacity="0.5"/>
    </g>
    <g id="Group_3651" data-name="Group 3651" transform="translate(1573.447 471.747)">
      <path id="Path_3059" data-name="Path 3059" d="M1869.359,774.547s-4.679-8.161-11.263-11.42a1.045,1.045,0,0,0-1.411,1.368l.021.045C1857.415,766.049,1865.095,770.422,1869.359,774.547Z" transform="translate(-1851.175 -763.016)" fill="#b8e4ff" opacity="0.5"/>
      <path id="Path_3060" data-name="Path 3060" d="M1828.115,802.9s-8.954-8.88-18.471-10.447a1.108,1.108,0,0,0-1.272.849,1.758,1.758,0,0,0,.552,1.481C1810.324,796.415,1821.389,799.224,1828.115,802.9Z" transform="translate(-1808.349 -789.131)" fill="#b8e4ff" opacity="0.5"/>
    </g>
    <path id="Path_3061" data-name="Path 3061" d="M2051.368,690.844v70.792a2.131,2.131,0,0,1-2,2.243H1947.234a2.131,2.131,0,0,1-2-2.243V690.844a2.13,2.13,0,0,1,2-2.243h102.138A2.131,2.131,0,0,1,2051.368,690.844Z" transform="translate(-356.424 -225.208)" fill="#95d7ff"/>
    <g id="Group_3653" data-name="Group 3653" transform="translate(1575.909 459.451)">
      <path id="Path_3062" data-name="Path 3062" d="M1944.272,655.624v5.741H1830.286v-5.741a2.144,2.144,0,0,1,2.145-2.144h109.7A2.144,2.144,0,0,1,1944.272,655.624Z" transform="translate(-1830.286 -653.48)" fill="#0fa4ff"/>
      <g id="Group_3652" data-name="Group 3652" transform="translate(3.487 2.944)">
        <path id="Path_3063" data-name="Path 3063" d="M1861.348,680.706a1,1,0,1,1,1,1A1,1,0,0,1,1861.348,680.706Z" transform="translate(-1861.348 -679.708)" fill="#e9e9e9"/>
        <path id="Path_3064" data-name="Path 3064" d="M1896.388,680.706a1,1,0,1,1,1,1A1,1,0,0,1,1896.388,680.706Z" transform="translate(-1892.455 -679.708)" fill="#e9e9e9"/>
        <path id="Path_3065" data-name="Path 3065" d="M1932.312,680.706a1,1,0,1,1,1,1A1,1,0,0,1,1932.312,680.706Z" transform="translate(-1924.346 -679.708)" fill="#e9e9e9"/>
      </g>
    </g>
    <path id="Path_3066" data-name="Path 3066" d="M2483.411,521.981l1.365-.154a.3.3,0,0,1,.286.137q.119.184.254.36a4.977,4.977,0,0,0,.541.6.3.3,0,0,1,.074.33l-.523,1.336a.3.3,0,0,0,.146.374l1.175.582a.291.291,0,0,0,.374-.1l.711-1.114a.293.293,0,0,1,.328-.127,5.305,5.305,0,0,0,1.665.166.3.3,0,0,1,.3.21l.241.767a.306.306,0,0,0,.347.206l1.276-.258a.252.252,0,0,0,.073-.025.293.293,0,0,0,.164-.3l-.114-1.019-.028-.249a5.27,5.27,0,0,0,.62-.409,5.343,5.343,0,0,0,.726-.673.292.292,0,0,1,.326-.079l1.076.423a.3.3,0,0,0,.383-.148l.446-.9.126-.258a.307.307,0,0,0-.109-.4l-.93-.595a.292.292,0,0,1-.132-.319,5.234,5.234,0,0,0,.142-1.117.883.883,0,0,0,0-.095.136.136,0,0,1,0-.032.3.3,0,0,1,.211-.256l1.244-.394a.212.212,0,0,0,.04-.016.3.3,0,0,0,.165-.33l-.256-1.273a.3.3,0,0,0-.33-.241l-1.423.161a.293.293,0,0,1-.294-.154,5.383,5.383,0,0,0-.446-.682q-.133-.175-.279-.335a.308.308,0,0,1-.058-.32l.5-1.284a.3.3,0,0,0-.144-.371l-1.164-.574a.308.308,0,0,0-.4.11l-.562.881a.3.3,0,0,1-.352.125,5.284,5.284,0,0,0-1.6-.288.3.3,0,0,1-.283-.211l-.354-1.122a.311.311,0,0,0-.356-.21l-1.269.254a.3.3,0,0,0-.237.326l.006.06.133,1.184a.3.3,0,0,1-.165.305h0a5.218,5.218,0,0,0-.787.5c-.135.1-.261.211-.384.324a.3.3,0,0,1-.314.061l-1.092-.429a.308.308,0,0,0-.389.15l-.573,1.159a.333.333,0,0,0-.029.1.3.3,0,0,0,.138.287l.744.473a.307.307,0,0,1,.139.267.336.336,0,0,1-.015.084,5.277,5.277,0,0,0-.268,2.067.3.3,0,0,1-.207.3l-1.008.318a.3.3,0,0,0-.2.346l.005.03.248,1.241A.307.307,0,0,0,2483.411,521.981Zm8.729-3.874a3.532,3.532,0,0,1,.186.63,2.771,2.771,0,0,1-.2,1.5c-.021.042-.042.083-.063.124a2.865,2.865,0,0,1-5.309-2.117,1.956,1.956,0,0,1,.1-.258,3.267,3.267,0,0,1,.651-.9A2.844,2.844,0,0,1,2492.14,518.107Z" transform="translate(-833.657 -68.715)" fill="#b8e4ff"/>
    <g id="Group_3657" data-name="Group 3657" transform="translate(1548.377 515.661)">
      <path id="Path_3067" data-name="Path 3067" d="M1733.844,1155.873a1.523,1.523,0,0,0-1.7-1.657,2.177,2.177,0,0,1,.851.457,2.188,2.188,0,0,0-2.466.372c-1.285,1.065-.487,3.736-.877,4.243s-1.912.608-1.726,2.249,4.829,3.694,4.531,5.05c0,0,1.82-2.674.519-3.9a2.411,2.411,0,0,1,.7,1.308s.172-1.387-.71-1.83a3.255,3.255,0,0,1-1.353-2.084C1731.68,1159.829,1733.844,1155.873,1733.844,1155.873Z" transform="translate(-1711.871 -1154.216)" fill="#151f2c"/>
      <path id="Path_3068" data-name="Path 3068" d="M1749.016,1239.833s1.383,5.721,2.74,6.865c.816.687,3.242,2.265,3.242,2.265l-1.009.366s-3.365-1.137-4.118-2.022a47.073,47.073,0,0,1-2.816-5.324Z" transform="translate(-1728.866 -1230.222)" fill="#ee805f"/>
      <path id="Path_3069" data-name="Path 3069" d="M1641.928,1286.6l.038.067c.3.526,1,1.814,1.761,3.225.362.669.74,1.366,1.1,2.021.619,1.131,1.182,2.138,1.511,2.671s.58.921.68,1.073h0a.251.251,0,0,1,.032.157,8.251,8.251,0,0,0,.022,1.418,10.882,10.882,0,0,0,3.556,7.048l.92.136s-1.3-4.823-1.685-7.55a5.228,5.228,0,0,1-.071-1.081,11.29,11.29,0,0,0-.3-2.951,66.08,66.08,0,0,0-1.881-6.831c-.043-.133-1.337-4.813-1.337-4.813-1.086.949-5.046,1.341-5.046,1.341S1640.559,1284.166,1641.928,1286.6Z" transform="translate(-1634.775 -1266.938)" fill="#384152"/>
      <path id="Path_3070" data-name="Path 3070" d="M1721.109,1481.563h-3.839a2.105,2.105,0,0,1,.108-1.029c.192-.426.466-.439.035-1.107a2.338,2.338,0,0,0,1.583.28,4.7,4.7,0,0,0,.666,1.013C1719.913,1480.9,1721.032,1480.837,1721.109,1481.563Z" transform="translate(-1702.406 -1442.92)" fill="#151f2c"/>
      <path id="Path_3071" data-name="Path 3071" d="M1648.746,1311.465l.038.067c.3.526,1.939,3.549,2.7,4.959a20.447,20.447,0,0,1-.27-7.29Z" transform="translate(-1641.593 -1291.803)" fill="#151f2c"/>
      <path id="Path_3072" data-name="Path 3072" d="M1752.416,1166.686a15.378,15.378,0,0,0-2.305,1.127c-1.04,1.154-.744,2.66-.149,2.674.382.009.308.644.308.644l4.253-1.8S1754.011,1166.347,1752.416,1166.686Z" transform="translate(-1730.967 -1165.262)" fill="#151f2c"/>
      <path id="Path_3073" data-name="Path 3073" d="M1745.666,1232.18a5.446,5.446,0,0,1,.567,2.342,4.069,4.069,0,0,1-2.8,1.544S1745.168,1232.179,1745.666,1232.18Z" transform="translate(-1725.646 -1223.428)" fill="#43a1f6"/>
      <path id="Path_3074" data-name="Path 3074" d="M1599.2,1276.483l.013-.718c-1.431.18-4.933-1.71-4.933-1.71s-1.5,1-1.7,3.838c-.1,1.388-.733,7.257-.8,9.009-.026.635-.034,1.088-.037,1.27,0,0,0,0,0,0a.248.248,0,0,1-.061.148,8.179,8.179,0,0,0-.775,1.189c-2.184,4.062-1.042,9.581-1.042,9.581l.507-.129s1.846-5.722,3.052-8.2a5.184,5.184,0,0,1,.547-.935,11.288,11.288,0,0,0,1.4-2.613C1596.258,1285.089,1599.2,1276.483,1599.2,1276.483Z" transform="translate(-1589.05 -1260.603)" fill="#384152"/>
      <path id="Path_3075" data-name="Path 3075" d="M1588.886,1481.344h-3.84a2.109,2.109,0,0,1,.108-1.029c.192-.426.493-.62.421-1.135a1.384,1.384,0,0,0,1.2.458,4.214,4.214,0,0,0,.667.863C1587.69,1480.682,1588.808,1480.618,1588.886,1481.344Z" transform="translate(-1585.025 -1442.701)" fill="#151f2c"/>
      <path id="Path_3076" data-name="Path 3076" d="M1642.67,1219.682c-.516.088.084.5-.625.575a12.833,12.833,0,0,0-2.6.4.587.587,0,0,0-.374.3,7.3,7.3,0,0,1-1.736,1.935c-6.686-.3-7.116-3.284-7.116-3.284,4.339-4.214,8.031-6.511,11.081-6.8a5.423,5.423,0,0,1,2.213.233,3.978,3.978,0,0,1,1.652,1.92S1644.63,1219.347,1642.67,1219.682Z" transform="translate(-1625.148 -1206.219)" fill="#43a1f6"/>
      <path id="Path_3077" data-name="Path 3077" d="M1714.833,1236.248a12.773,12.773,0,0,0-2.6.4,10.647,10.647,0,0,1,1.35-5.843S1714.613,1234.986,1714.833,1236.248Z" transform="translate(-1697.936 -1222.211)" fill="#2b6eb2"/>
      <path id="Path_3078" data-name="Path 3078" d="M1748.033,1205.413c.191.6.827,2.3,1.709,1.646a2.17,2.17,0,0,1,.374-.872c.279-.48.612-.97.612-.97l-1.437-1.259-.086-.075a3.658,3.658,0,0,1-1.069,1.214A.287.287,0,0,0,1748.033,1205.413Z" transform="translate(-1729.722 -1198.307)" fill="#ee805f"/>
      <path id="Path_3079" data-name="Path 3079" d="M1760.569,1205.812s-.332.489-.611.97a2.223,2.223,0,0,1-.825-2.229Z" transform="translate(-1739.564 -1198.901)" fill="#de6b4d"/>
      <path id="Path_3080" data-name="Path 3080" d="M1760.138,1186.136s-2.169-1.207-1.4-2.546,1.012-2.4,2.43-1.683,1.389,1.379,1.24,1.888S1760.722,1186.415,1760.138,1186.136Z" transform="translate(-1739.094 -1178.595)" fill="#ee805f"/>
      <path id="Path_3081" data-name="Path 3081" d="M1760.976,1181.581c-.1-.594-.4-.651-.612-.612a1.735,1.735,0,0,0-2.109-.808,2.952,2.952,0,0,1-1.709,1.027s.252.469,1.289.758a1.774,1.774,0,0,0,1.023-.082,5.792,5.792,0,0,1-1.472.555,4.139,4.139,0,0,0,2.8-1.258,1.942,1.942,0,0,1,.108.9c-.09.4-.447,1.132-.229,1.226C1760.065,1183.283,1761.125,1182.472,1760.976,1181.581Z" transform="translate(-1737.291 -1177.161)" fill="#151f2c"/>
      <g id="Group_3656" data-name="Group 3656" transform="translate(19.056 16.533)">
        <rect id="Rectangle_363" data-name="Rectangle 363" width="18.002" height="4.721" transform="translate(10.055 5.079) rotate(25.99)" fill="#43a1f6"/>
        <g id="Group_3654" data-name="Group 3654">
          <path id="Path_3082" data-name="Path 3082" d="M1757.7,1311.707a5.35,5.35,0,0,1-2.9-3.681,1.216,1.216,0,1,1,2.375-.522,2.945,2.945,0,1,0,2.044-3.454,1.216,1.216,0,0,1-.689-2.332,5.376,5.376,0,1,1-.834,9.989Z" transform="translate(-1754.775 -1301.497)" fill="#43a1f6"/>
        </g>
        <g id="Group_3655" data-name="Group 3655" transform="translate(22.796 11.161)">
          <path id="Path_3083" data-name="Path 3083" d="M1960.867,1411.134a5.376,5.376,0,1,1,7.356-6.81,1.216,1.216,0,0,1-2.262.894,2.945,2.945,0,1,0-1.462,3.737,1.216,1.216,0,1,1,1.052,2.192A5.349,5.349,0,0,1,1960.867,1411.134Z" transform="translate(-1957.847 -1400.926)" fill="#43a1f6"/>
        </g>
        <path id="Rectangle_364" data-name="Rectangle 364" d="M.742,0h0a.742.742,0,0,1,.742.742V9.731a.742.742,0,0,1-.742.742h0A.742.742,0,0,1,0,9.731V.742A.742.742,0,0,1,.742,0Z" transform="translate(11.443 9.077) rotate(-64.01)" fill="#2b6eb2"/>
      </g>
      <path id="Path_3084" data-name="Path 3084" d="M1753.652,1353.169a1.436,1.436,0,0,0,.218.612c.171.209.668.714.676,1.009,0,0-.025.132-.132.107s-.477-.39-.667-.364a3.677,3.677,0,0,0,.2.76,2.087,2.087,0,0,1,.225.939c-.06.144-1.066-.694-1.371-1.1s0-2.071,0-2.071Z" transform="translate(-1733.849 -1330.737)" fill="#ee805f"/>
      <path id="Path_3085" data-name="Path 3085" d="M1718.918,1225.757s-2.539-.138-2.99,1.455.847,7.956,1.126,8.613a43.706,43.706,0,0,0,2.987,4.608l.911-.278s-1.652-5.213-2.021-5.729C1718.352,1233.617,1719.678,1226.45,1718.918,1225.757Z" transform="translate(-1701.149 -1217.723)" fill="#ee805f"/>
      <path id="Path_3086" data-name="Path 3086" d="M1712.214,1225.621a7.062,7.062,0,0,0,3.9-.32s1.252-3.922-.537-3.734-2.848.751-2.894,1.607A16.5,16.5,0,0,1,1712.214,1225.621Z" transform="translate(-1697.937 -1214)" fill="#43a1f6"/>
      <path id="Path_3087" data-name="Path 3087" d="M1802.084,1298.408a.99.99,0,0,0-.421.106c-.138.107-.294.293.016.447.466.232,1.4.129,1.36-.011C1802.924,1298.511,1802.756,1298.377,1802.084,1298.408Z" transform="translate(-1777.199 -1282.218)" fill="#ee805f"/>
    </g>
    <g id="Group_3660" data-name="Group 3660" transform="translate(1592.351 434.915)">
      <path id="Path_3088" data-name="Path 3088" d="M2069.393,711.441a.434.434,0,0,0-.078.464v0a2.877,2.877,0,0,0,.912,1c.055.045.1.085.146.122l.032.03.026.023c.4.37.25.454.97,1.2.821.854,1.387.87,1.548.792.136-.066-.141-.519-.447-1.029l-.044-.074-.122-.2c-.359-.613-.267-.9-.182-1.813.069-.741,1.153-4.142,1.153-4.142l-1.574-.271s-.474,2.708-1,3.125c-.279.222-.592.225-.86.39l-.056.035A2.07,2.07,0,0,0,2069.393,711.441Z" transform="translate(-2058.893 -676.94)" fill="#ee805f"/>
      <path id="Path_3089" data-name="Path 3089" d="M2069.393,739.24a.434.434,0,0,0-.078.465v0a3.348,3.348,0,0,0,.913,1c.054.045.1.087.146.125l.032.029.026.023c.4.37.25.454.97,1.2.821.854,1.387.87,1.548.792.136-.066-.141-.52-.447-1.029a3.5,3.5,0,0,1-1.464-1.079c-.494-.631-.824-1.442-1.161-1.912l-.056.035A2.07,2.07,0,0,0,2069.393,739.24Z" transform="translate(-2058.893 -704.74)" fill="#151f2c"/>
      <path id="Path_3090" data-name="Path 3090" d="M2173.385,706.671c.1.486.79.4,1.563.216s.59.036,1.691-.086,1.435-.532,1.468-.7c.03-.145-.514-.2-1.1-.264l-.221-.026a4.771,4.771,0,0,1-1.74-.857,6.992,6.992,0,0,1-1.413-1.678l-1.51.12s.793,1.2,1.1,1.727a1.832,1.832,0,0,1,.148,1.029A1.938,1.938,0,0,0,2173.385,706.671Z" transform="translate(-2150.194 -673.153)" fill="#ee805f"/>
      <path id="Path_3091" data-name="Path 3091" d="M2184.721,727.147c.773-.189.59.036,1.691-.086s1.435-.533,1.469-.7c.03-.145-.514-.2-1.1-.264l0,.011a3.1,3.1,0,0,1-1.577.49c-.747.018-1.539-.2-2.055-.187a1.948,1.948,0,0,0,.012.516C2183.254,727.417,2183.947,727.336,2184.721,727.147Z" transform="translate(-2159.966 -693.414)" fill="#151f2c"/>
      <path id="Path_3092" data-name="Path 3092" d="M2090.81,628.329l-1.412,3.8-1.843,4.96a2.987,2.987,0,0,1-.979-.089,4.251,4.251,0,0,1-.948-.461,53.94,53.94,0,0,1,1.467-8.383,5.454,5.454,0,0,1,.822-1.777C2089.4,624.629,2090.81,628.329,2090.81,628.329Z" transform="translate(-2073.406 -604.468)" fill="#151f2c"/>
      <path id="Path_3093" data-name="Path 3093" d="M2011.005,587.729c-.926-.3-3.563.085-6.213.6l-.554-.915-5.724-.447s-1.889,4.189-.855,6.857a.967.967,0,0,0,.969.652h.083l4.513,0c2.846,0,6.024-1.957,6.435-2.039.673-.135.942,1.211,1.615,2.624s6.325,6.257,6.325,6.257a4.97,4.97,0,0,0,1.227-.126,1.205,1.205,0,0,0,.527-.333S2013.091,588.4,2011.005,587.729Z" transform="translate(-1995.037 -569.901)" fill="#384152"/>
      <path id="Path_3094" data-name="Path 3094" d="M1984.054,435.007a6.033,6.033,0,0,0-2.082.017c-2.177.214-2.909,2.644-2.58,4.529.3,1.74-.578,2.221-1.6,3.595-2.05,2.755-.71,5.078.908,5.677.971.359,2.318-.547,2.318-.547a62.62,62.62,0,0,0,5.961-4.319C1989.851,442.834,1986.1,435.533,1984.054,435.007Z" transform="translate(-1976.75 -434.915)" fill="#151f2c"/>
      <path id="Path_3095" data-name="Path 3095" d="M2021.458,485.559c.057.2-.9.572-1.623.436-.684-.128-1.451-.929-1.293-1,.262-.124.438-.434.294-2.107l.131.015,2.189.25s.006.682.057,1.32A4.33,4.33,0,0,0,2021.458,485.559Z" transform="translate(-2013.832 -477.499)" fill="#ee805f"/>
      <path id="Path_3096" data-name="Path 3096" d="M2024.683,483.266s.007.682.057,1.32a2.564,2.564,0,0,1-2.246-1.57Z" transform="translate(-2017.359 -477.616)" fill="#de6b4d"/>
      <path id="Path_3097" data-name="Path 3097" d="M2021.032,452.828s-2.848.281-3-1.5-.615-2.936,1.2-3.19,2.223.394,2.416.975S2021.769,452.709,2021.032,452.828Z" transform="translate(-2013.256 -446.606)" fill="#ee805f"/>
      <path id="Path_3098" data-name="Path 3098" d="M2014.045,443.869s-.359,2.17-1.98,2.685a2.594,2.594,0,0,1-1.719.128,4.821,4.821,0,0,0,.772-1.805.869.869,0,0,1,.579-.663C2012.537,443.938,2013.556,443.181,2014.045,443.869Z" transform="translate(-2006.574 -442.615)" fill="#151f2c"/>
      <path id="Path_3099" data-name="Path 3099" d="M2038.521,446.283a1.885,1.885,0,0,1,1.012.812,3.631,3.631,0,0,1,.509,1.755s.5-2.008-.228-2.755A.756.756,0,0,0,2038.521,446.283Z" transform="translate(-2031.587 -444.565)" fill="#151f2c"/>
      <path id="Path_3100" data-name="Path 3100" d="M1996.929,506.806c.051.216.094.414.129.6.058.3.1.55.126.775.087.7.061,1.115.12,1.57a3.912,3.912,0,0,0,.213.854c.118.325,3.212.615,4.973.5a2.415,2.415,0,0,0,1.136-.246c.628-.545.565.654.651-5.086.042-2.8-2.376-5.294-2.376-5.294s-.193,1.2-2.591-.227a14.866,14.866,0,0,0-1.939,3.07C1996.371,505.219,1996.646,505.622,1996.929,506.806Z" transform="translate(-1994.431 -492.912)" fill="#43a1f6"/>
      <path id="Path_3101" data-name="Path 3101" d="M2089.4,649.893l-1.843,4.96a2.983,2.983,0,0,1-.979-.09,4.245,4.245,0,0,1-.948-.461,53.94,53.94,0,0,1,1.467-8.383Z" transform="translate(-2073.406 -622.233)" fill="#384152"/>
      <path id="Path_3102" data-name="Path 3102" d="M2043.3,502.28s2.467.418,2.757,1.48,2.291,7,2.291,7-1.551.529-2.13-.05-2.016-5.376-2.016-5.376Z" transform="translate(-2035.831 -494.718)" fill="#43a1f6"/>
      <path id="Path_3104" data-name="Path 3104" d="M2001.274,569.641c.087.7.061,1.115.119,1.57,2.24.007,5.235-1.73,5.235-1.73Z" transform="translate(-1998.521 -554.374)" fill="#2b6eb2"/>
      <path id="Path_3105" data-name="Path 3105" d="M2005.891,533.71s-3.49-.1-4.078-2.088c-.646-2.179-1.37.9-1.37.9l.385,1.963h3.829Z" transform="translate(-1997.784 -520.074)" fill="#2b6eb2"/>
      <g id="Group_3659" data-name="Group 3659" transform="translate(9.296 6.958)">
        <path id="Path_3106" data-name="Path 3106" d="M2064.454,498.2l-.189-.467a1.325,1.325,0,0,0-1.228-.829h-3.479v11.632h14.391v-9.424h-8.144A1.458,1.458,0,0,1,2064.454,498.2Z" transform="translate(-2059.558 -496.903)" fill="#0086ff"/>
        <g id="Group_3658" data-name="Group 3658" transform="translate(2.171 3.944)">
          <path id="Path_3107" data-name="Path 3107" d="M2078.9,543.1v-.839l2.941-1.288v.857l-2.053.845,2.053.845v.869Z" transform="translate(-2078.896 -539.966)" fill="#fff"/>
          <path id="Path_3108" data-name="Path 3108" d="M2111.032,532.038h.784l-2.692,5.627h-.784Z" transform="translate(-2105.035 -532.038)" fill="#fff"/>
          <path id="Path_3109" data-name="Path 3109" d="M2145.164,542.257v.839l-2.941,1.288v-.857l2.054-.845-2.054-.844v-.869Z" transform="translate(-2135.114 -539.966)" fill="#fff"/>
        </g>
      </g>
      <path id="Path_3110" data-name="Path 3110" d="M2048.971,550.932l.253-.4a2.031,2.031,0,0,0,.48-.262c.334-.234.289-.585.456-.548l0,.771-.018,0c.715.191,1.551-.017,1.568.161.046.49-.333.71-.65.864a1.151,1.151,0,0,1-.958.157c-.321-.1-.826-.2-.826-.2Z" transform="translate(-2040.864 -536.835)" fill="#ee805f"/>
      <path id="Path_3111" data-name="Path 3111" d="M1989.573,500.261s-2.265.148-2.832,1.032a17.31,17.31,0,0,0-.974,6.91c.294,1.541,7.549-.295,7.549-.295l-.231-1.337s-4.187.024-4.425-.521C1988.342,505.325,1989.573,500.261,1989.573,500.261Z" transform="translate(-1984.693 -492.926)" fill="#43a1f6"/>
      <path id="Path_3112" data-name="Path 3112" d="M2117.625,513.095a.843.843,0,0,0,.855.549c.321-.064.737-.755.371-.907A1.042,1.042,0,0,0,2117.625,513.095Z" transform="translate(-2101.811 -503.934)" fill="#ee805f"/>
    </g>
    <g id="Group_3666" data-name="Group 3666" transform="translate(1625.5 459.421)">
      <g id="Group_3661" data-name="Group 3661" transform="translate(4.738 0.01)">
        <rect id="Rectangle_365" data-name="Rectangle 365" width="17.866" height="0.086" transform="translate(0 15.762) rotate(-61.908)" fill="#151f2c"/>
      </g>
      <g id="Group_3662" data-name="Group 3662" transform="translate(34.504 0)">
        <rect id="Rectangle_366" data-name="Rectangle 366" width="0.086" height="13.913" transform="matrix(0.733, -0.68, 0.68, 0.733, 0, 0.059)" fill="#151f2c"/>
      </g>
      <g id="Group_3665" data-name="Group 3665" transform="translate(0 9.961)">
        <path id="Path_3113" data-name="Path 3113" d="M2321.916,745.2a3.782,3.782,0,0,1-.706,2.771,3.607,3.607,0,0,1-2.413,1.444l-42.285,5.81a3.871,3.871,0,0,1-4.434-3.177,3.64,3.64,0,0,1,.792-2.783,4.06,4.06,0,0,1,2.621-1.472l42.285-5.81A3.718,3.718,0,0,1,2321.916,745.2Z" transform="translate(-2272.045 -741.952)" fill="#fff"/>
        <path id="Path_3114" data-name="Path 3114" d="M2623.054,745.2a3.78,3.78,0,0,1-.706,2.771,3.607,3.607,0,0,1-2.413,1.444l-7.652,1.051-1.021-7.432,7.652-1.051A3.718,3.718,0,0,1,2623.054,745.2Z" transform="translate(-2573.184 -741.952)" fill="#43a1f6"/>
        <g id="Group_3664" data-name="Group 3664" transform="translate(41.1 1.462)">
          <g id="Group_3663" data-name="Group 3663" transform="translate(1.939)">
            <path id="Path_3115" data-name="Path 3115" d="M2657.618,758.783a1.95,1.95,0,0,1-.286.018,1.912,1.912,0,0,1-1.314-3.279h0a1.912,1.912,0,1,1,1.6,3.261Zm-1.38-3.036a1.6,1.6,0,1,0,2.258.026,1.6,1.6,0,0,0-2.258-.026Z" transform="translate(-2655.443 -754.979)" fill="#fff"/>
          </g>
          <rect id="Rectangle_367" data-name="Rectangle 367" width="0.315" height="2.609" transform="translate(2.485 3.024) rotate(45.662)" fill="#fff"/>
          <path id="Path_3116" data-name="Path 3116" d="M2638.254,792.54h0a.281.281,0,0,1,0-.4l1.1-1.074a.281.281,0,0,1,.4,0h0a.281.281,0,0,1,0,.4l-1.1,1.074A.281.281,0,0,1,2638.254,792.54Z" transform="translate(-2638.174 -786.946)" fill="#fff"/>
        </g>
      </g>
    </g>
    <g id="Group_3669" data-name="Group 3669" transform="translate(1595.195 512.21)">
      <rect id="Rectangle_368" data-name="Rectangle 368" width="9.5" height="0.806" rx="0.403" transform="translate(0 0)" fill="#43a1f6"/>
      <g id="Group_3668" data-name="Group 3668" transform="translate(0 1.874)">
        <path id="Path_3117" data-name="Path 3117" d="M2006.724,1150.991h-4.359a.275.275,0,0,1-.275-.275h0a.275.275,0,0,1,.275-.275h4.359a.275.275,0,0,1,.275.275h0A.275.275,0,0,1,2006.724,1150.991Z" transform="translate(-2002.09 -1149.288)" fill="#151f2c"/>
        <g id="Group_3667" data-name="Group 3667">
          <rect id="Rectangle_369" data-name="Rectangle 369" width="8.228" height="0.55" rx="0.275" fill="#151f2c"/>
          <rect id="Rectangle_370" data-name="Rectangle 370" width="7.683" height="0.55" rx="0.275" transform="translate(8.977)" fill="#151f2c"/>
          <path id="Path_3118" data-name="Path 3118" d="M2055.156,1150.991H2050.8a.275.275,0,0,1-.275-.275h0a.275.275,0,0,1,.275-.275h4.359a.275.275,0,0,1,.275.275h0A.276.276,0,0,1,2055.156,1150.991Z" transform="translate(-2045.085 -1149.288)" fill="#151f2c"/>
        </g>
      </g>
      <path id="Rectangle_371" data-name="Rectangle 371" d="M.4,0H9.1a.4.4,0,0,1,.4.4v0a.4.4,0,0,1-.4.4H.4A.4.4,0,0,1,0,.4v0A.4.4,0,0,1,.4,0Z" transform="translate(10.757 0)" fill="#43a1f6"/>
    </g>
    <g id="Group_3672" data-name="Group 3672" transform="translate(1595.195 518.279)">
      <path id="Rectangle_372" data-name="Rectangle 372" d="M.4,0H9.1a.4.4,0,0,1,.4.4v0a.4.4,0,0,1-.4.4H.4A.4.4,0,0,1,0,.4v0A.4.4,0,0,1,.4,0Z" transform="translate(0 0)" fill="#43a1f6"/>
      <g id="Group_3671" data-name="Group 3671" transform="translate(0 1.874)">
        <path id="Path_3119" data-name="Path 3119" d="M2006.724,1205.052h-4.359a.275.275,0,0,1-.275-.275h0a.275.275,0,0,1,.275-.275h4.359a.275.275,0,0,1,.275.275h0A.275.275,0,0,1,2006.724,1205.052Z" transform="translate(-2002.09 -1203.349)" fill="#151f2c"/>
        <g id="Group_3670" data-name="Group 3670">
          <rect id="Rectangle_373" data-name="Rectangle 373" width="8.228" height="0.55" rx="0.275" fill="#151f2c"/>
          <path id="Rectangle_374" data-name="Rectangle 374" d="M.275,0H7.408a.275.275,0,0,1,.275.275v0A.275.275,0,0,1,7.408.55H.275A.275.275,0,0,1,0,.275v0A.275.275,0,0,1,.275,0Z" transform="translate(8.977)" fill="#151f2c"/>
          <path id="Path_3120" data-name="Path 3120" d="M2055.156,1205.052H2050.8a.275.275,0,0,1-.275-.275h0a.275.275,0,0,1,.275-.275h4.359a.276.276,0,0,1,.275.275h0A.275.275,0,0,1,2055.156,1205.052Z" transform="translate(-2045.085 -1203.349)" fill="#151f2c"/>
        </g>
      </g>
      <path id="Rectangle_375" data-name="Rectangle 375" d="M.4,0H9.1a.4.4,0,0,1,.4.4v0a.4.4,0,0,1-.4.4H.4A.4.4,0,0,1,0,.4v0A.4.4,0,0,1,.4,0Z" transform="translate(10.757 0)" fill="#43a1f6"/>
    </g>
    <g id="Group_3673" data-name="Group 3673" transform="translate(1640.836 477.568)">
      <path id="Path_3121" data-name="Path 3121" d="M2418.11,819.5l-5.045,1.174-2.5,4.54-1.9-10.346Z" transform="translate(-2408.665 -814.872)" fill="#384152"/>
      <rect id="Rectangle_376" data-name="Rectangle 376" width="0.922" height="5.336" transform="matrix(0.797, -0.604, 0.604, 0.797, 3.389, 5.367)" fill="#384152"/>
    </g>
    <g id="Group_3675" data-name="Group 3675" transform="translate(1633.663 489.361)">
      <rect id="Rectangle_377" data-name="Rectangle 377" width="14.225" height="14.225" rx="7.112" transform="translate(0 0)" fill="#fff"/>
      <g id="Group_3674" data-name="Group 3674" transform="translate(1.702 2.85)">
        <path id="Path_3122" data-name="Path 3122" d="M2360.039,977.031l2.764-4.983a.91.91,0,0,1,1.529-.1l1.594,2.175a.909.909,0,0,0,1.4.076h0a.909.909,0,0,1,1.434.119l1.72,2.656a.909.909,0,0,1-.764,1.4h-8.886A.91.91,0,0,1,2360.039,977.031Z" transform="translate(-2359.924 -968.632)" fill="#2b6eb2"/>
        <path id="Path_3123" data-name="Path 3123" d="M2409.546,946.405a1.087,1.087,0,1,1,1.087,1.087A1.087,1.087,0,0,1,2409.546,946.405Z" transform="translate(-2403.976 -945.318)" fill="#2b6eb2"/>
      </g>
    </g>
    <g id="Group_3677" data-name="Group 3677" transform="translate(1650.174 489.867)">
      <path id="Path_3124" data-name="Path 3124" d="M2506.855,938.533l-12.293,1.677a.909.909,0,0,1-1.023-.778l-1.676-12.292a.909.909,0,0,1,.777-1.024l12.293-1.677a.91.91,0,0,1,1.024.778l1.677,12.293A.91.91,0,0,1,2506.855,938.533Z" transform="translate(-2491.854 -924.431)" fill="#fff"/>
      <g id="Group_3676" data-name="Group 3676" transform="translate(3.144 3.492)">
        <path id="Path_3125" data-name="Path 3125" d="M2519.921,991.055l2.065-5.311a.909.909,0,0,1,1.5-.3l1.874,1.939a.909.909,0,0,0,1.4-.114h0a.909.909,0,0,1,1.437-.076l2.063,2.4a.909.909,0,0,1-.566,1.494l-8.805,1.2A.909.909,0,0,1,2519.921,991.055Z" transform="translate(-2519.858 -981.839)" fill="#2b6eb2"/>
        <path id="Path_3126" data-name="Path 3126" d="M2559.683,956.772a1.087,1.087,0,1,1,1.224.93A1.088,1.088,0,0,1,2559.683,956.772Z" transform="translate(-2555.204 -955.538)" fill="#2b6eb2"/>
      </g>
    </g>
    <g id="Group_3678" data-name="Group 3678" transform="translate(1621.573 547.651)">
      <rect id="Rectangle_378" data-name="Rectangle 378" width="7.169" height="6.147" transform="translate(0.289 0.263)" fill="#43a1f6"/>
      <rect id="Rectangle_379" data-name="Rectangle 379" width="7.701" height="0.475" transform="translate(0 0)" fill="#384152"/>
      <rect id="Rectangle_380" data-name="Rectangle 380" width="7.169" height="1.952" transform="translate(0.289 1.926)" fill="#384152"/>
    </g>
    <path id="Path_3127" data-name="Path 3127" d="M2324.127,1483.284h-6.769a.449.449,0,0,1-.448-.449v-.751a.449.449,0,0,1,.5-.446l6.77.751a.449.449,0,0,1,.4.446h0A.449.449,0,0,1,2324.127,1483.284Z" transform="translate(-686.373 -929.22)" fill="#43a1f6"/>
    <path id="Path_3128" data-name="Path 3128" d="M1732.432,1496.655l-188.459-.065a.23.23,0,0,1-.229-.23v-.117a.23.23,0,0,1,.229-.229l188.459.065a.23.23,0,0,1,.23.23v.117A.231.231,0,0,1,1732.432,1496.655Z" transform="translate(0 -941.983)" fill="#436df6"/>
    <g id="Group_3679" data-name="Group 3679" transform="translate(1597.453 486.702)">
      <path id="Path_3129" data-name="Path 3129" d="M2050.682,913.684h-.78a.128.128,0,1,1,0-.257h.774a.131.131,0,0,1,.131.128A.126.126,0,0,1,2050.682,913.684Zm-1.555,0h-.775a.128.128,0,1,1,0-.257h.775a.128.128,0,1,1,0,.257Zm-1.55,0h-.775a.128.128,0,0,1,0-.257h.775a.128.128,0,1,1,0,.257Zm-1.55,0h-.775a.128.128,0,0,1,0-.257h.775a.128.128,0,1,1,0,.257Zm-1.549,0h-.775a.128.128,0,1,1,0-.257h.775a.128.128,0,0,1,0,.257Zm-1.55,0h-.775a.128.128,0,0,1,0-.257h.775a.128.128,0,0,1,0,.257Zm-1.55,0h-.775a.128.128,0,0,1,0-.257h.775a.128.128,0,1,1,0,.257Zm-1.55,0h-.774a.128.128,0,1,1,0-.257h.774a.128.128,0,1,1,0,.257Zm-1.549,0h-.775a.128.128,0,0,1,0-.257h.775a.128.128,0,0,1,0,.257Zm-1.55,0h-.775a.128.128,0,1,1,0-.257h.775a.128.128,0,0,1,0,.257Zm-1.55,0h-.775a.128.128,0,1,1,0-.257h.775a.128.128,0,1,1,0,.257Zm-1.549,0h-.775a.128.128,0,1,1,0-.257h.775a.128.128,0,0,1,0,.257Zm-1.55,0h-.775a.128.128,0,0,1,0-.257h.775a.128.128,0,0,1,0,.257Zm-1.55,0h-.774a.128.128,0,1,1,0-.257h.774a.128.128,0,1,1,0,.257Zm-1.549,0h-.775a.128.128,0,1,1,0-.257h.775a.128.128,0,1,1,0,.257Zm-1.55,0h-.775a.128.128,0,0,1,0-.257h.775a.128.128,0,0,1,0,.257Zm-1.55,0h-.775a.128.128,0,0,1,0-.257h.775a.128.128,0,1,1,0,.257Zm-1.55,0h-.69l-.092,0a.128.128,0,1,1,.016-.256l.076,0h.69a.128.128,0,1,1,0,.257Zm27.077-.225a.128.128,0,0,1-.072-.234,1.176,1.176,0,0,0,.433-.536.128.128,0,1,1,.238.1,1.436,1.436,0,0,1-.526.652A.13.13,0,0,1,2051.411,913.459Zm-28.566-.046a.127.127,0,0,1-.078-.027,1.43,1.43,0,0,1-.486-.683.128.128,0,1,1,.243-.081,1.174,1.174,0,0,0,.4.561.128.128,0,0,1-.079.23Zm29.141-1.31a.128.128,0,0,1-.128-.128V911.2a.128.128,0,1,1,.256,0v.775A.128.128,0,0,1,2051.985,912.1Zm-29.65-.079a.128.128,0,0,1-.128-.128v-.775a.128.128,0,1,1,.256,0v.775A.128.128,0,0,1,2022.335,912.023Zm29.65-1.471a.128.128,0,0,1-.128-.128v-.775a.128.128,0,1,1,.256,0v.775A.128.128,0,0,1,2051.985,910.552Zm-29.65-.079a.129.129,0,0,1-.128-.128v-.775a.128.128,0,1,1,.256,0v.775A.128.128,0,0,1,2022.335,910.474Zm29.65-1.471a.128.128,0,0,1-.128-.128V908.1a.128.128,0,0,1,.256,0v.775A.128.128,0,0,1,2051.985,909Zm-29.65-.079a.128.128,0,0,1-.128-.128v-.775a.128.128,0,0,1,.256,0v.775A.128.128,0,0,1,2022.335,908.924Zm29.65-1.471a.128.128,0,0,1-.128-.128v-.775a.128.128,0,1,1,.256,0v.775A.128.128,0,0,1,2051.985,907.453Zm-29.65-.079a.128.128,0,0,1-.128-.128v-.775a.128.128,0,1,1,.256,0v.775A.128.128,0,0,1,2022.335,907.374Zm29.65-1.471a.128.128,0,0,1-.128-.128V905a.128.128,0,1,1,.256,0v.775A.128.128,0,0,1,2051.985,905.9Zm-29.65-.079a.129.129,0,0,1-.128-.128v-.775a.128.128,0,0,1,.256,0v.775A.128.128,0,0,1,2022.335,905.825Zm29.65-1.471a.128.128,0,0,1-.128-.128v-.775a.128.128,0,1,1,.256,0v.775A.128.128,0,0,1,2051.985,904.354Zm-29.65-.079a.128.128,0,0,1-.128-.128v-.775a.128.128,0,1,1,.256,0v.775A.128.128,0,0,1,2022.335,904.275Zm29.65-1.471a.128.128,0,0,1-.128-.128V901.9a.128.128,0,1,1,.256,0v.775A.128.128,0,0,1,2051.985,902.8Zm-29.65-.079a.128.128,0,0,1-.128-.128v-.775a.128.128,0,1,1,.256,0v.775A.128.128,0,0,1,2022.335,902.726Zm29.65-1.471a.128.128,0,0,1-.128-.128v-.775a.128.128,0,1,1,.256,0v.775A.128.128,0,0,1,2051.985,901.255Zm-29.65-.079a.128.128,0,0,1-.128-.128v-.775a.128.128,0,1,1,.256,0v.775A.128.128,0,0,1,2022.335,901.176Zm29.65-1.471a.128.128,0,0,1-.128-.128V898.8a.128.128,0,1,1,.256,0v.775A.128.128,0,0,1,2051.985,899.705Zm-29.65-.079a.128.128,0,0,1-.128-.128v-.775a.128.128,0,1,1,.256,0v.775A.128.128,0,0,1,2022.335,899.627Zm29.65-1.471a.128.128,0,0,1-.128-.128v-.35a1.2,1.2,0,0,0-.061-.376.128.128,0,1,1,.243-.082,1.429,1.429,0,0,1,.075.458v.35A.128.128,0,0,1,2051.985,898.156Zm-29.65-.079a.128.128,0,0,1-.128-.128v-.271a1.428,1.428,0,0,1,.1-.539.128.128,0,1,1,.238.1,1.174,1.174,0,0,0-.086.443v.271A.128.128,0,0,1,2022.335,898.077Zm29.138-1.309a.127.127,0,0,1-.078-.027,1.175,1.175,0,0,0-.645-.241.128.128,0,1,1,.016-.256,1.428,1.428,0,0,1,.785.294.128.128,0,0,1-.078.23Zm-28.562-.046a.128.128,0,0,1-.072-.234,1.43,1.43,0,0,1,.8-.246h0a.128.128,0,0,1,0,.257,1.174,1.174,0,0,0-.658.2A.128.128,0,0,1,2022.911,896.722Zm27.072-.224h-.774a.128.128,0,1,1,0-.257h.774a.128.128,0,1,1,0,.257Zm-1.549,0h-.775a.128.128,0,1,1,0-.257h.775a.128.128,0,0,1,0,.257Zm-1.55,0h-.775a.128.128,0,0,1,0-.257h.775a.128.128,0,1,1,0,.257Zm-1.55,0h-.774a.128.128,0,1,1,0-.257h.774a.128.128,0,0,1,0,.257Zm-1.55,0h-.775a.128.128,0,0,1,0-.257h.775a.128.128,0,0,1,0,.257Zm-1.55,0h-.775a.128.128,0,0,1,0-.257h.775a.128.128,0,1,1,0,.257Zm-1.549,0h-.775a.128.128,0,1,1,0-.257h.775a.128.128,0,0,1,0,.257Zm-1.55,0h-.775a.128.128,0,0,1,0-.257h.775a.128.128,0,1,1,0,.257Zm-1.55,0h-.775a.128.128,0,0,1,0-.257h.775a.128.128,0,1,1,0,.257Zm-1.55,0h-.774a.128.128,0,1,1,0-.257h.774a.128.128,0,1,1,0,.257Zm-1.549,0h-.775a.128.128,0,1,1,0-.257h.775a.128.128,0,0,1,0,.257Zm-1.55,0h-.775a.128.128,0,1,1,0-.257h.775a.128.128,0,0,1,0,.257Zm-1.55,0h-.775a.128.128,0,0,1,0-.257h.775a.128.128,0,1,1,0,.257Zm-1.549,0h-.775a.128.128,0,1,1,0-.257h.775a.128.128,0,0,1,0,.257Zm-1.55,0h-.775a.128.128,0,1,1,0-.257h.775a.128.128,0,0,1,0,.257Zm-1.55,0h-.775a.128.128,0,0,1,0-.257h.775a.128.128,0,0,1,0,.257Zm-1.55,0h-.775a.128.128,0,0,1,0-.257h.775a.128.128,0,1,1,0,.257Z" transform="translate(-2022.206 -896.241)" fill="#151f2c"/>
    </g>
    <g id="Group_3680" data-name="Group 3680" transform="translate(1656.387 521.103)">
      <path id="Path_3130" data-name="Path 3130" d="M2560.781,1207.236h-.691a.114.114,0,1,1,0-.227h.687a.116.116,0,0,1,.116.114A.112.112,0,0,1,2560.781,1207.236Zm-1.378,0h-.686a.114.114,0,1,1,0-.227h.686a.114.114,0,1,1,0,.227Zm-1.373,0h-.686a.114.114,0,1,1,0-.227h.686a.114.114,0,1,1,0,.227Zm-1.372,0h-.686a.114.114,0,1,1,0-.227h.686a.114.114,0,1,1,0,.227Zm-1.373,0h-.686a.114.114,0,1,1,0-.227h.686a.114.114,0,1,1,0,.227Zm-1.373,0h-.686a.114.114,0,1,1,0-.227h.686a.114.114,0,1,1,0,.227Zm-1.373,0h-.687a.114.114,0,0,1,0-.227h.687a.114.114,0,1,1,0,.227Zm-1.373,0h-.686a.114.114,0,1,1,0-.227h.686a.114.114,0,1,1,0,.227Zm-1.372,0h-.686a.114.114,0,1,1,0-.227h.686a.114.114,0,1,1,0,.227Zm-1.373,0h-.692a.114.114,0,1,1,.011-.227h.681a.114.114,0,0,1,0,.227Zm12.8-.435h0a.115.115,0,0,1-.11-.117V1206a.114.114,0,0,1,.227,0v.69A.114.114,0,0,1,2561.225,1206.8Zm-13.916-.019a.113.113,0,0,1-.114-.113v-.687a.114.114,0,0,1,.228,0v.687A.113.113,0,0,1,2547.31,1206.782Zm13.916-1.354a.114.114,0,0,1-.114-.114v-.687a.114.114,0,1,1,.227,0v.687A.114.114,0,0,1,2561.226,1205.428Zm-13.916-.019a.113.113,0,0,1-.114-.113v-.687a.114.114,0,0,1,.228,0v.687A.114.114,0,0,1,2547.31,1205.41Zm13.916-1.354a.113.113,0,0,1-.114-.113v-.687a.114.114,0,1,1,.227,0v.687A.114.114,0,0,1,2561.226,1204.055Zm-13.916-.018a.114.114,0,0,1-.114-.114v-.669c0-.007,0-.014,0-.021a.112.112,0,0,1,.118-.109.114.114,0,0,1,.109.118v.682A.114.114,0,0,1,2547.31,1204.037Zm13.487-1.118h-.687a.114.114,0,0,1,0-.228h.692a.114.114,0,0,1-.005.227Zm-1.372,0h-.687a.114.114,0,0,1,0-.228h.687a.114.114,0,0,1,0,.228Zm-1.373,0h-.686a.114.114,0,0,1,0-.228h.686a.114.114,0,0,1,0,.228Zm-1.373,0h-.686a.114.114,0,0,1,0-.228h.686a.114.114,0,0,1,0,.228Zm-1.372,0h-.687a.114.114,0,0,1,0-.228h.687a.114.114,0,0,1,0,.228Zm-1.374,0h-.686a.114.114,0,0,1,0-.228h.686a.114.114,0,0,1,0,.228Zm-1.372,0h-.686a.114.114,0,0,1,0-.228h.686a.114.114,0,0,1,0,.228Zm-1.373,0h-.686a.114.114,0,0,1,0-.228h.686a.114.114,0,0,1,0,.228Zm-1.373,0h-.686a.114.114,0,0,1,0-.228h.686a.114.114,0,0,1,0,.228Zm-1.372,0h-.684a.115.115,0,0,1-.115-.114.113.113,0,0,1,.113-.114h.686a.114.114,0,0,1,0,.228Z" transform="translate(-2547.196 -1202.691)" fill="#151f2c"/>
    </g>
    <g id="Group_3681" data-name="Group 3681" transform="translate(1609.875 474.191)">
      <path id="Path_3131" data-name="Path 3131" d="M2143.934,795.288h-.764a.128.128,0,1,1,0-.256h.759a.131.131,0,0,1,.131.128A.126.126,0,0,1,2143.934,795.288Zm-1.524,0h-.759a.128.128,0,0,1,0-.256h.759a.128.128,0,1,1,0,.256Zm-1.519,0h-.759a.128.128,0,1,1,0-.256h.759a.128.128,0,1,1,0,.256Zm-1.519,0h-.759a.128.128,0,1,1,0-.256h.759a.128.128,0,1,1,0,.256Zm-1.519,0h-.76a.128.128,0,0,1,0-.256h.76a.128.128,0,1,1,0,.256Zm-1.519,0h-.759a.128.128,0,1,1,0-.256h.759a.128.128,0,0,1,0,.256Zm-1.519,0h-.76a.128.128,0,0,1,0-.256h.76a.128.128,0,1,1,0,.256Zm-1.5-.082a.124.124,0,0,1-.063-.017.761.761,0,0,1-.385-.661v-.093a.128.128,0,1,1,.256,0v.093a.5.5,0,0,0,.255.438.128.128,0,0,1-.063.24Zm11.21-.327a.126.126,0,0,1-.045-.008.128.128,0,0,1-.074-.165.513.513,0,0,0,.032-.177V794a.128.128,0,1,1,.256,0v.532a.762.762,0,0,1-.049.267A.128.128,0,0,1,2144.52,794.88Zm-11.53-1.075a.128.128,0,0,1-.128-.128v-.76a.128.128,0,0,1,.256,0v.76A.128.128,0,0,1,2132.99,793.8Zm11.57-.439a.128.128,0,0,1-.128-.128v-.76a.128.128,0,1,1,.256,0v.76A.128.128,0,0,1,2144.56,793.365Zm-11.57-1.08a.128.128,0,0,1-.128-.128v-.76a.128.128,0,1,1,.256,0v.76A.128.128,0,0,1,2132.99,792.285Zm11.57-.439a.128.128,0,0,1-.128-.128v-.76a.128.128,0,1,1,.256,0v.76A.128.128,0,0,1,2144.56,791.846Zm-11.57-1.08a.128.128,0,0,1-.128-.128v-.76a.128.128,0,1,1,.256,0v.76A.128.128,0,0,1,2132.99,790.767Zm11.57-.439a.128.128,0,0,1-.128-.128v-.76a.128.128,0,1,1,.256,0v.76A.129.129,0,0,1,2144.56,790.327Zm-11.57-1.08a.128.128,0,0,1-.128-.128v-.759a.128.128,0,1,1,.256,0v.759A.128.128,0,0,1,2132.99,789.248Zm11.57-.439a.128.128,0,0,1-.128-.128v-.759a.128.128,0,1,1,.256,0v.759A.128.128,0,0,1,2144.56,788.808Zm-11.57-1.08a.128.128,0,0,1-.128-.128v-.76a.128.128,0,1,1,.256,0v.76A.128.128,0,0,1,2132.99,787.729Zm11.57-.439a.128.128,0,0,1-.128-.129V786.4a.128.128,0,1,1,.256,0v.759A.129.129,0,0,1,2144.56,787.289Zm-11.57-1.08a.128.128,0,0,1-.128-.128v-.53a.76.76,0,0,1,.05-.27.128.128,0,0,1,.24.091.512.512,0,0,0-.033.179v.53A.128.128,0,0,1,2132.99,786.21Zm11.57-.439a.128.128,0,0,1-.128-.128v-.091a.5.5,0,0,0-.257-.439.128.128,0,0,1,.125-.223.761.761,0,0,1,.388.662v.091A.128.128,0,0,1,2144.56,785.77Zm-1.067-.722h-.76a.128.128,0,0,1,0-.256h.76a.128.128,0,0,1,0,.256Zm-1.52,0h-.76a.128.128,0,0,1,0-.256h.76a.128.128,0,1,1,0,.256Zm-1.519,0h-.759a.128.128,0,1,1,0-.256h.759a.128.128,0,1,1,0,.256Zm-1.519,0h-.76a.128.128,0,1,1,0-.256h.76a.128.128,0,0,1,0,.256Zm-1.519,0h-.759a.128.128,0,1,1,0-.256h.759a.128.128,0,1,1,0,.256Zm-1.519,0h-.76a.128.128,0,0,1,0-.256h.76a.128.128,0,1,1,0,.256Zm-1.519,0h-.757a.129.129,0,0,1-.129-.128.127.127,0,0,1,.127-.128h.759a.128.128,0,1,1,0,.256Z" transform="translate(-2132.862 -784.792)" fill="#151f2c"/>
    </g>
    <g id="Group_3682" data-name="Group 3682" transform="translate(1656.387 527.438)">
      <path id="Path_3132" data-name="Path 3132" d="M2560.781,1263.665h-.691a.114.114,0,1,1,0-.227h.687a.116.116,0,0,1,.116.113A.112.112,0,0,1,2560.781,1263.665Zm-1.378,0h-.686a.114.114,0,1,1,0-.227h.686a.114.114,0,0,1,0,.227Zm-1.373,0h-.686a.114.114,0,1,1,0-.227h.686a.114.114,0,0,1,0,.227Zm-1.372,0h-.686a.114.114,0,1,1,0-.227h.686a.114.114,0,0,1,0,.227Zm-1.373,0h-.686a.114.114,0,0,1,0-.227h.686a.114.114,0,0,1,0,.227Zm-1.373,0h-.686a.114.114,0,1,1,0-.227h.686a.114.114,0,1,1,0,.227Zm-1.373,0h-.687a.114.114,0,0,1,0-.227h.687a.114.114,0,1,1,0,.227Zm-1.373,0h-.686a.114.114,0,1,1,0-.227h.686a.114.114,0,1,1,0,.227Zm-1.372,0h-.686a.114.114,0,1,1,0-.227h.686a.114.114,0,0,1,0,.227Zm-1.373,0h-.692a.114.114,0,0,1-.108-.119.112.112,0,0,1,.119-.108h.681a.114.114,0,0,1,0,.227Zm12.8-.435h0a.114.114,0,0,1-.11-.117v-.683a.114.114,0,0,1,.227,0v.69A.113.113,0,0,1,2561.225,1263.23Zm-13.916-.018a.113.113,0,0,1-.114-.114v-.686a.114.114,0,0,1,.228,0v.686A.114.114,0,0,1,2547.31,1263.211Zm13.916-1.354a.113.113,0,0,1-.114-.113v-.686a.114.114,0,1,1,.227,0v.686A.114.114,0,0,1,2561.226,1261.857Zm-13.916-.018a.114.114,0,0,1-.114-.114v-.686a.114.114,0,0,1,.228,0v.686A.114.114,0,0,1,2547.31,1261.839Zm13.916-1.354a.113.113,0,0,1-.114-.114v-.686a.114.114,0,1,1,.227,0v.686A.114.114,0,0,1,2561.226,1260.484Zm-13.916-.018a.114.114,0,0,1-.114-.114v-.669c0-.007,0-.014,0-.022a.112.112,0,0,1,.118-.109.115.115,0,0,1,.109.118v.682A.114.114,0,0,1,2547.31,1260.466Zm13.487-1.118h-.687a.114.114,0,0,1,0-.227h.692a.114.114,0,0,1-.005.227Zm-1.372,0h-.687a.114.114,0,1,1,0-.227h.687a.114.114,0,0,1,0,.227Zm-1.373,0h-.686a.114.114,0,1,1,0-.227h.686a.114.114,0,0,1,0,.227Zm-1.373,0h-.686a.114.114,0,1,1,0-.227h.686a.114.114,0,0,1,0,.227Zm-1.372,0h-.687a.114.114,0,0,1,0-.227h.687a.114.114,0,0,1,0,.227Zm-1.374,0h-.686a.114.114,0,1,1,0-.227h.686a.114.114,0,1,1,0,.227Zm-1.372,0h-.686a.114.114,0,1,1,0-.227h.686a.114.114,0,1,1,0,.227Zm-1.373,0h-.686a.114.114,0,0,1,0-.227h.686a.114.114,0,1,1,0,.227Zm-1.373,0h-.686a.114.114,0,1,1,0-.227h.686a.114.114,0,1,1,0,.227Zm-1.372,0h-.684a.115.115,0,0,1-.115-.113.113.113,0,0,1,.113-.114h.686a.114.114,0,0,1,0,.227Z" transform="translate(-2547.196 -1259.12)" fill="#151f2c"/>
    </g>
    <g id="Group_3683" data-name="Group 3683" transform="translate(1593.573 509.796)">
      <path id="Path_3133" data-name="Path 3133" d="M2009.873,1119.382h-.685a.114.114,0,1,1,0-.227h.68a.115.115,0,0,1,.116.114A.111.111,0,0,1,2009.873,1119.382Zm-1.365,0h-.681a.114.114,0,1,1,0-.227h.681a.114.114,0,0,1,0,.227Zm-1.361,0h-.681a.114.114,0,0,1,0-.227h.681a.114.114,0,0,1,0,.227Zm-1.361,0h-.681a.114.114,0,1,1,0-.227h.681a.114.114,0,0,1,0,.227Zm-1.361,0h-.68a.114.114,0,0,1,0-.227h.68a.114.114,0,1,1,0,.227Zm-1.361,0h-.68a.114.114,0,1,1,0-.227h.68a.114.114,0,1,1,0,.227Zm-1.361,0h-.68a.114.114,0,0,1,0-.227h.68a.114.114,0,1,1,0,.227Zm-1.361,0h-.68a.114.114,0,0,1,0-.227h.68a.114.114,0,1,1,0,.227Zm-1.361,0h-.681a.114.114,0,1,1,0-.227h.681a.114.114,0,1,1,0,.227Zm-1.361,0h-.68a.114.114,0,1,1,0-.227h.68a.114.114,0,1,1,0,.227Zm-1.361,0h-.681a.114.114,0,1,1,0-.227h.681a.114.114,0,1,1,0,.227Zm-1.361,0h-.68a.114.114,0,1,1,0-.227h.68a.114.114,0,1,1,0,.227Zm-1.361,0h-.68a.114.114,0,1,1,0-.227h.68a.114.114,0,0,1,0,.227Zm-1.361,0h-.681a.114.114,0,1,1,0-.227h.681a.114.114,0,1,1,0,.227Zm-1.361,0h-.68a.114.114,0,0,1,0-.227h.68a.114.114,0,0,1,0,.227Zm-1.361,0h-.543a1.3,1.3,0,0,1-.15-.009.114.114,0,1,1,.027-.226,1.111,1.111,0,0,0,.123.007h.543a.114.114,0,1,1,0,.227Zm21.059-.2a.114.114,0,0,1-.064-.208,1.043,1.043,0,0,0,.384-.468.114.114,0,1,1,.21.087,1.273,1.273,0,0,1-.467.569A.114.114,0,0,1,2010.514,1119.185Zm-22.353-.08a.111.111,0,0,1-.074-.027,1.267,1.267,0,0,1-.4-.619.113.113,0,1,1,.218-.062,1.044,1.044,0,0,0,.328.508.114.114,0,0,1,.013.16A.112.112,0,0,1,1988.161,1119.105Zm22.867-1.107a.113.113,0,0,1-.113-.113v-.681a.114.114,0,1,1,.227,0v.681A.113.113,0,0,1,2011.027,1118Zm-23.275-.132a.114.114,0,0,1-.114-.114v-.68a.114.114,0,0,1,.228,0v.68A.114.114,0,0,1,1987.753,1117.866Zm23.275-1.228a.113.113,0,0,1-.113-.114v-.681a.114.114,0,1,1,.227,0v.681A.114.114,0,0,1,2011.027,1116.637Zm-23.275-.132a.114.114,0,0,1-.114-.114v-.681a.114.114,0,0,1,.228,0v.681A.114.114,0,0,1,1987.753,1116.5Zm23.275-1.228a.114.114,0,0,1-.113-.114v-.68a.114.114,0,0,1,.227,0v.68A.114.114,0,0,1,2011.027,1115.277Zm-23.275-.133a.114.114,0,0,1-.114-.114v-.68a.114.114,0,0,1,.228,0v.68A.114.114,0,0,1,1987.753,1115.144Zm23.275-1.228a.114.114,0,0,1-.113-.114v-.68a.114.114,0,1,1,.227,0v.68A.114.114,0,0,1,2011.027,1113.916Zm-23.275-.133a.114.114,0,0,1-.114-.114v-.68a.114.114,0,0,1,.228,0v.68A.114.114,0,0,1,1987.753,1113.783Zm23.275-1.229a.113.113,0,0,1-.113-.113v-.68a.114.114,0,1,1,.227,0v.68A.113.113,0,0,1,2011.027,1112.554Zm-23.275-.132a.114.114,0,0,1-.114-.113v-.68a.114.114,0,0,1,.228,0v.68A.114.114,0,0,1,1987.753,1112.422Zm23.275-1.228a.113.113,0,0,1-.113-.113v-.681a.114.114,0,1,1,.227,0v.681A.114.114,0,0,1,2011.027,1111.194Zm-23.275-.133a.114.114,0,0,1-.114-.114v-.68a.114.114,0,0,1,.228,0v.68A.113.113,0,0,1,1987.753,1111.061Zm23.275-1.228a.114.114,0,0,1-.113-.114v-.68a.114.114,0,1,1,.227,0v.68A.114.114,0,0,1,2011.027,1109.833Zm-23.275-.133a.114.114,0,0,1-.114-.114v-.681a.114.114,0,0,1,.228,0v.681A.113.113,0,0,1,1987.753,1109.7Zm23.275-1.228a.113.113,0,0,1-.113-.113v-.681a.114.114,0,0,1,.227,0v.681A.114.114,0,0,1,2011.027,1108.472Zm-23.275-.132a.114.114,0,0,1-.114-.114v-.68a.114.114,0,0,1,.228,0v.68A.114.114,0,0,1,1987.753,1108.34Zm23.275-1.229a.113.113,0,0,1-.113-.114v-.68a.114.114,0,1,1,.227,0v.68A.114.114,0,0,1,2011.027,1107.111Zm-23.275-.133a.114.114,0,0,1-.114-.114v-.68a.114.114,0,0,1,.228,0v.68A.114.114,0,0,1,1987.753,1106.979Zm23.275-1.228a.113.113,0,0,1-.113-.113v-.68a.114.114,0,1,1,.227,0v.68A.114.114,0,0,1,2011.027,1105.75Zm-23.275-.132a.114.114,0,0,1-.114-.114v-.681a.114.114,0,0,1,.228,0v.681A.114.114,0,0,1,1987.753,1105.618Zm23.275-1.228a.113.113,0,0,1-.113-.114v-.681a.114.114,0,1,1,.227,0v.681A.114.114,0,0,1,2011.027,1104.39Zm-23.275-.133a.114.114,0,0,1-.114-.114v-.68a.114.114,0,0,1,.228,0v.68A.114.114,0,0,1,1987.753,1104.257Zm23.229-1.224a.114.114,0,0,1-.109-.082,1.041,1.041,0,0,0-.329-.507.114.114,0,1,1,.147-.173,1.27,1.27,0,0,1,.4.618.114.114,0,0,1-.078.141A.115.115,0,0,1,2010.982,1103.033Zm-23.14-.125a.114.114,0,0,1-.1-.157,1.269,1.269,0,0,1,.468-.568.114.114,0,1,1,.126.189,1.044,1.044,0,0,0-.385.467A.114.114,0,0,1,1987.842,1102.908Zm22.161-.7h-.013a.988.988,0,0,0-.122-.007h-.546a.114.114,0,1,1,0-.227h.546a1.265,1.265,0,0,1,.147.009.114.114,0,0,1-.013.227Zm-1.36-.008h-.68a.114.114,0,1,1,0-.227h.68a.114.114,0,0,1,0,.227Zm-1.361,0h-.68a.114.114,0,1,1,0-.227h.68a.114.114,0,1,1,0,.227Zm-1.361,0h-.681a.114.114,0,0,1,0-.227h.681a.114.114,0,0,1,0,.227Zm-1.361,0h-.68a.114.114,0,1,1,0-.227h.68a.114.114,0,1,1,0,.227Zm-1.361,0h-.68a.114.114,0,1,1,0-.227h.68a.114.114,0,1,1,0,.227Zm-1.361,0h-.681a.114.114,0,0,1,0-.227h.681a.114.114,0,0,1,0,.227Zm-1.361,0h-.681a.114.114,0,0,1,0-.227h.681a.114.114,0,0,1,0,.227Zm-1.361,0h-.68a.114.114,0,0,1,0-.227h.68a.114.114,0,1,1,0,.227Zm-1.361,0h-.68a.114.114,0,1,1,0-.227h.68a.114.114,0,0,1,0,.227Zm-1.361,0h-.68a.114.114,0,1,1,0-.227h.68a.114.114,0,1,1,0,.227Zm-1.361,0h-.681a.114.114,0,0,1,0-.227h.681a.114.114,0,0,1,0,.227Zm-1.361,0h-.681a.114.114,0,0,1,0-.227h.681a.114.114,0,0,1,0,.227Zm-1.361,0h-.681a.114.114,0,0,1,0-.227h.681a.114.114,0,1,1,0,.227Zm-1.361,0h-.68a.114.114,0,1,1,0-.227h.68a.114.114,0,1,1,0,.227Zm-1.361,0h-.678a.115.115,0,0,1-.115-.114.113.113,0,0,1,.113-.113h.68a.114.114,0,0,1,0,.227Z" transform="translate(-1987.639 -1101.968)" fill="#151f2c"/>
    </g>
    <g id="Group_3685" data-name="Group 3685" transform="translate(1593.845 489.167)">
      <rect id="Rectangle_381" data-name="Rectangle 381" width="29.65" height="17.186" rx="8.593" transform="translate(0 0)" fill="#fff"/>
      <path id="Path_3134" data-name="Path 3134" d="M2092.319,960.14v6.818a.536.536,0,0,0,.831.447l5.182-3.409a.536.536,0,0,0,0-.895l-5.182-3.409A.536.536,0,0,0,2092.319,960.14Z" transform="translate(-2080.84 -954.955)" fill="#43a1f6"/>
      <g id="Group_3684" data-name="Group 3684" transform="translate(1.541 15.104)">
        <path id="Path_3135" data-name="Path 3135" d="M2003.79,1053.281a.532.532,0,1,1,.532.532A.532.532,0,0,1,2003.79,1053.281Z" transform="translate(-2003.79 -1052.749)" fill="#aec3ff"/>
        <path id="Path_3136" data-name="Path 3136" d="M2032.742,1056.5h-24.069a.143.143,0,0,1-.143-.143h0a.143.143,0,0,1,.143-.143h24.069a.143.143,0,0,1,.143.143h0A.143.143,0,0,1,2032.742,1056.5Z" transform="translate(-2007.998 -1055.824)" fill="#aec3ff"/>
      </g>
    </g>
    <path id="Path_4026" data-name="Path 4026" d="M0,0H15.34V22.9H0Z" transform="translate(1621.573 509.91)" fill="#fff"/>
    <g id="Group_3691" data-name="Group 3691" transform="translate(1628.014 510.456)">
      <g id="Group_3687" data-name="Group 3687" transform="translate(0 1.895)">
        <g id="Group_3686" data-name="Group 3686" transform="translate(2.492 0.78)">
          <path id="Path_3137" data-name="Path 3137" d="M2316.854,1135.813h-.209v-.944a.614.614,0,0,1,.613-.614h2.6a.4.4,0,0,0,.391-.3l.411-1.56a.4.4,0,0,0-.391-.507h-3.386v-.209h3.386a.614.614,0,0,1,.593.77l-.41,1.561a.614.614,0,0,1-.594.458h-2.6a.4.4,0,0,0-.4.4Z" transform="translate(-2316.645 -1131.677)" fill="#384152"/>
        </g>
        <path id="Rectangle_383" data-name="Rectangle 383" d="M.885,0H4.938a.885.885,0,0,1,.885.885v0a.885.885,0,0,1-.885.885H.885A.885.885,0,0,1,0,.885v0A.885.885,0,0,1,.885,0Z" fill="#43a1f6"/>
        <path id="Path_3138" data-name="Path 3138" d="M2313.015,1166.625h0a.577.577,0,0,1-.577-.577v-3.5a.577.577,0,0,1,.577-.577h0a.577.577,0,0,1,.576.577v3.5A.577.577,0,0,1,2313.015,1166.625Z" transform="translate(-2310.419 -1157.793)" fill="#384152"/>
      </g>
      <g id="Group_3688" data-name="Group 3688" transform="translate(15.337 6.715)">
        <path id="Path_3139" data-name="Path 3139" d="M2506.03,1270.567a7.978,7.978,0,0,1,.363,1.5,5.471,5.471,0,0,1-.462,1.48c-.178.244-.266-1-.407-1.183s-.029.467-.128.528-.306-.481-.4-.672.217-.9.219-1.386S2506.03,1270.567,2506.03,1270.567Z" transform="translate(-2496.686 -1258.971)" fill="#ee805f"/>
        <path id="Path_3140" data-name="Path 3140" d="M2431.077,1169.544a1.736,1.736,0,0,1,2.615-1.634l.073.046c1.8,1.159,5.685,6.566,5.953,7.108s1.056,4.851,1.056,4.851-.975.357-1.431-.013c0,0-1.582-4.087-1.816-4.291s-6.326-3.622-6.377-4.9C2431.136,1170.368,2431.109,1169.96,2431.077,1169.544Z" transform="translate(-2431.071 -1167.66)" fill="#151f2c"/>
      </g>
      <g id="Group_3689" data-name="Group 3689" transform="translate(13.041 19.254)">
        <path id="Path_3141" data-name="Path 3141" d="M2507.163,1463.906s.726.662.585,1.133-.8.784-.885,1.36-.443.889-.762.889h-1.52s-.234-.405.333-.527.78-.8.745-1.425a11.012,11.012,0,0,1,.053-1.465l1.2-.279Z" transform="translate(-2493.991 -1442.911)" fill="#2a4a7c"/>
        <path id="Path_3142" data-name="Path 3142" d="M2414.885,1477.036s.13,1.508-.188,1.665l-4.079-.009s0-.471.655-.575,1.806-.489,2-1.343S2414.885,1477.036,2414.885,1477.036Z" transform="translate(-2410.618 -1454.328)" fill="#2a4a7c"/>
        <path id="Path_3143" data-name="Path 3143" d="M2417.954,1289.045s.216,2.643.468,5.819c.344,4.315.757,9.615.8,10.62.07,1.744.354,4.533.354,4.533a2.25,2.25,0,0,0,2.018.383,45.017,45.017,0,0,0,1.542-8.194c.005-.069.01-.139.016-.208.319-4.288.814-13.319.814-13.319Z" transform="translate(-2417.13 -1287.633)" fill="#43a1f6"/>
        <path id="Path_3144" data-name="Path 3144" d="M2417.954,1289.045s.216,2.643.468,5.819l4.713,7.342c.005-.069.01-.139.016-.208.319-4.288.814-13.319.814-13.319Z" transform="translate(-2417.13 -1287.633)" fill="#2b6eb2"/>
        <path id="Path_3145" data-name="Path 3145" d="M2426.705,1281.088s3.877,9.571,6.427,14.068,3.346,5.753,3.346,5.753,1.461-.575,1.594-.968c0,0-.975-8.683-2.683-10.8a15.745,15.745,0,0,1-2.151-6.04c-.053-1.255-.345-3.74-.345-3.74Z" transform="translate(-2424.899 -1279.362)" fill="#43a1f6"/>
      </g>
      <path id="Path_3146" data-name="Path 3146" d="M2423.912,1141.918s-2.6,1.318-4.119.878a3.566,3.566,0,0,1,1.007-.839c-.058-.3-.1-.565-.132-.788a7.269,7.269,0,0,1-.08-.806l1-.816.945-.781A3.869,3.869,0,0,0,2423.912,1141.918Z" transform="translate(-2405.722 -1135.295)" fill="#ee805f"/>
      <path id="Path_3147" data-name="Path 3147" d="M2416.132,1173.8a10.691,10.691,0,0,1-3.2,1.38,25.37,25.37,0,0,1-3.619.315.233.233,0,0,1-.164-.041c-.045-.023-.294-1.695-.543-3.805-.01-.085-.022-.171-.027-.257l0-.028c-.1-.825-.182-1.692-.256-2.56-.06-.676-.109-1.344-.143-1.972-.044-.785-.062-1.507-.044-2.1.008-.271.024-.515.048-.727a5.176,5.176,0,0,1,1.291-2.77l.459-.522a2.521,2.521,0,0,0,1.589-.406c.56-.369,1.166-.767,1.28-.7a5.6,5.6,0,0,1,2.059,3.3,18.315,18.315,0,0,1,.648,3.092c.045.345.084.7.113,1.053q.008.1.016.195c.068.965.177,1.869.3,2.677.164,1.089.352,2,.483,2.644.067.327.117.58.147.761C2416.59,1173.487,2416.273,1173.713,2416.132,1173.8Z" transform="translate(-2395.361 -1153.79)" fill="#384152"/>
      <path id="Path_3148" data-name="Path 3148" d="M2428.853,1145.759a3.478,3.478,0,0,1-1.895,1.584,7.22,7.22,0,0,1-.08-.806l1-.816Z" transform="translate(-2412.012 -1141.469)" fill="#de6b4d"/>
      <path id="Path_3149" data-name="Path 3149" d="M2418.6,1120.365s2.51.36,2.715-1.183.666-2.536-.928-2.831-1.985.254-2.18.753S2417.957,1120.231,2418.6,1120.365Z" transform="translate(-2404.201 -1115.323)" fill="#ee805f"/>
      <path id="Path_3150" data-name="Path 3150" d="M2415.469,1108.652c.022-.026.074-.048.191-.057a.48.48,0,0,0-.219-.057.586.586,0,0,0-.4-.511.351.351,0,0,1,.174.249c-.33-.326-1.028-.553-2.942-.364-2.523.25-1.658,1.851-1.327,2.037s1.145-.359,1.755-.322.744.915.953,1.032.124-.1.4-.227.313.331.238.634.317.693.317.693l.38-.426a4.354,4.354,0,0,0,.528-2.58Z" transform="translate(-2397.501 -1107.843)" fill="#151f2c"/>
      <path id="Path_3151" data-name="Path 3151" d="M2412.532,1205.452a11.353,11.353,0,0,1-4.36,1.964c-.044-.785-.062-1.507-.044-2.1Z" transform="translate(-2395.361 -1194.373)" fill="#151f2c"/>
      <g id="Group_3690" data-name="Group 3690" transform="translate(1.855 7.249)">
        <path id="Path_3152" data-name="Path 3152" d="M2313.29,1177.123c-.034-.036-.465-1.479-1.211-1.373-.487.069-1.283.35-1.071.992a7.868,7.868,0,0,0,1.567,1.121Z" transform="translate(-2310.972 -1175.371)" fill="#ee805f"/>
        <path id="Path_3153" data-name="Path 3153" d="M2338.472,1173.137a1.736,1.736,0,0,1-.182,3.078l-.08.033c-1.987.8-8.646.834-9.242.739s-4.567-1.947-4.567-1.947.273-1,.839-1.159c0,0,4.248,1.076,4.55,1s6.616-3.061,7.69-2.361C2337.767,1172.708,2338.114,1172.922,2338.472,1173.137Z" transform="translate(-2322.894 -1172.418)" fill="#384152"/>
      </g>
    </g>
    <g id="Group_3692" data-name="Group 3692" transform="translate(1684.531 470.246)">
      <path id="Path_3154" data-name="Path 3154" d="M2803.617,750.456h-5.3a.406.406,0,0,1-.4-.4h0a.406.406,0,0,1,.4-.405h5.3a.406.406,0,0,1,.405.405h0A.406.406,0,0,1,2803.617,750.456Z" transform="translate(-2797.913 -749.646)" fill="#ebf3fa"/>
      <path id="Path_3155" data-name="Path 3155" d="M2803.617,764.552h-5.3a.406.406,0,0,1-.4-.405h0a.406.406,0,0,1,.4-.4h5.3a.406.406,0,0,1,.405.4h0A.406.406,0,0,1,2803.617,764.552Z" transform="translate(-2797.913 -762.16)" fill="#ebf3fa"/>
      <path id="Path_3156" data-name="Path 3156" d="M2803.617,779.013h-5.3a.406.406,0,0,1-.4-.405h0a.406.406,0,0,1,.4-.405h5.3a.406.406,0,0,1,.405.405h0A.406.406,0,0,1,2803.617,779.013Z" transform="translate(-2797.913 -774.997)" fill="#ebf3fa"/>
    </g>
    <path id="Path_3157" data-name="Path 3157" d="M2559.822,1117.342H2547.2a.539.539,0,0,1-.538-.537h0a.539.539,0,0,1,.538-.537h12.617a.538.538,0,0,1,.537.537h0A.539.539,0,0,1,2559.822,1117.342Z" transform="translate(-890.339 -604.867)" fill="#ebf3fa"/>
    <path id="Path_3158" data-name="Path 3158" d="M2010.4,788.953h-12.617a.539.539,0,0,1-.537-.537h0a.539.539,0,0,1,.537-.537H2010.4a.539.539,0,0,1,.537.537h0A.539.539,0,0,1,2010.4,788.953Z" transform="translate(-402.594 -313.341)" fill="#ebf3fa"/>
    <path id="Path_3159" data-name="Path 3159" d="M2559.822,1164.806H2547.2a.539.539,0,0,1-.538-.537h0a.539.539,0,0,1,.538-.537h12.617a.539.539,0,0,1,.537.537h0A.539.539,0,0,1,2559.822,1164.806Z" transform="translate(-890.339 -647.003)" fill="#ebf3fa"/>
    <path id="Path_3160" data-name="Path 3160" d="M2540.263,1141.075h-15.09a.539.539,0,0,1-.537-.537h0a.539.539,0,0,1,.537-.537h15.09a.539.539,0,0,1,.537.537h0A.539.539,0,0,1,2540.263,1141.075Z" transform="translate(-870.781 -625.935)" fill="#ebf3fa"/>
    <g id="Group_3693" data-name="Group 3693" transform="translate(1594.175 477.915)">
      <rect id="Rectangle_384" data-name="Rectangle 384" width="7.937" height="1.074" rx="0.537" transform="translate(2.358 0)" fill="#ebf3fa"/>
      <path id="Path_3161" data-name="Path 3161" d="M1993,818.5a.537.537,0,1,1,.537.537A.537.537,0,0,1,1993,818.5Z" transform="translate(-1992.998 -817.964)" fill="#ebf3fa"/>
    </g>
    <g id="Group_3694" data-name="Group 3694" transform="translate(1594.175 480.053)">
      <rect id="Rectangle_385" data-name="Rectangle 385" width="9.323" height="1.074" rx="0.537" transform="translate(2.358 0)" fill="#ebf3fa"/>
      <path id="Path_3162" data-name="Path 3162" d="M1993,837.542a.537.537,0,1,1,.537.537A.537.537,0,0,1,1993,837.542Z" transform="translate(-1992.998 -837.005)" fill="#ebf3fa"/>
    </g>
    <g id="Group_3695" data-name="Group 3695" transform="translate(1594.175 482.373)">
      <rect id="Rectangle_386" data-name="Rectangle 386" width="7.937" height="1.074" rx="0.537" transform="translate(2.358 0)" fill="#ebf3fa"/>
      <path id="Path_3163" data-name="Path 3163" d="M1993,858.21a.537.537,0,1,1,.537.537A.537.537,0,0,1,1993,858.21Z" transform="translate(-1992.998 -857.673)" fill="#ebf3fa"/>
    </g>
    <g id="Group_3697" data-name="Group 3697" transform="translate(1612.934 476.421)">
      <g id="Group_3696" data-name="Group 3696" transform="translate(1.922)">
        <path id="Path_3164" data-name="Path 3164" d="M2179.381,808.426a1.9,1.9,0,0,1-1.586-3.232h0a1.895,1.895,0,1,1,1.586,3.232Zm-1.368-3.009a1.582,1.582,0,1,0,2.239.026,1.585,1.585,0,0,0-2.239-.026Z" transform="translate(-2177.225 -804.655)" fill="#151f2c"/>
      </g>
      <rect id="Rectangle_387" data-name="Rectangle 387" width="0.312" height="2.586" transform="translate(2.463 2.998) rotate(45.662)" fill="#151f2c"/>
      <path id="Path_3165" data-name="Path 3165" d="M2160.187,841.886h0a.279.279,0,0,1,0-.394l1.09-1.064a.279.279,0,0,1,.394,0h0a.278.278,0,0,1,0,.394l-1.09,1.065A.278.278,0,0,1,2160.187,841.886Z" transform="translate(-2160.108 -836.342)" fill="#151f2c"/>
    </g>
    <g id="Group_3698" data-name="Group 3698" transform="translate(1690.205 508.941)">
      <path id="Path_3166" data-name="Path 3166" d="M2863.6,1140.068h0a.622.622,0,0,1-.566-.39l-14.558-44.328a.292.292,0,0,1,.308-.4h0a.622.622,0,0,1,.566.39l14.559,44.328A.292.292,0,0,1,2863.6,1140.068Z" transform="translate(-2848.452 -1094.887)" fill="#151f2c"/>
      <path id="Path_3167" data-name="Path 3167" d="M2968.119,1139.463h0a.623.623,0,0,1-.567-.39l-14.559-44.327a.292.292,0,0,1,.309-.4h0a.622.622,0,0,1,.567.39l14.558,44.328A.291.291,0,0,1,2968.119,1139.463Z" transform="translate(-2941.241 -1094.35)" fill="#151f2c"/>
      <path id="Path_3168" data-name="Path 3168" d="M2877.792,1147.029l-11.783.068a.59.59,0,0,1-.535-.368h0a.276.276,0,0,1,.292-.373l11.782-.068a.589.589,0,0,1,.535.369h0A.276.276,0,0,1,2877.792,1147.029Z" transform="translate(-2863.548 -1140.457)" fill="#151f2c"/>
      <path id="Path_3169" data-name="Path 3169" d="M2900.436,1215.975l-11.782.068a.591.591,0,0,1-.535-.368h0a.277.277,0,0,1,.292-.373l11.783-.068a.589.589,0,0,1,.535.368h0A.276.276,0,0,1,2900.436,1215.975Z" transform="translate(-2883.65 -1201.663)" fill="#151f2c"/>
      <path id="Path_3170" data-name="Path 3170" d="M2922.243,1282.376l-11.782.068a.591.591,0,0,1-.535-.368h0a.276.276,0,0,1,.291-.373l11.783-.068a.589.589,0,0,1,.535.368h0A.276.276,0,0,1,2922.243,1282.376Z" transform="translate(-2903.01 -1260.611)" fill="#151f2c"/>
      <path id="Path_3171" data-name="Path 3171" d="M2946.8,1357.13l-11.782.068a.59.59,0,0,1-.535-.368h0a.276.276,0,0,1,.291-.373l11.782-.068a.589.589,0,0,1,.535.368h0A.276.276,0,0,1,2946.8,1357.13Z" transform="translate(-2924.806 -1326.973)" fill="#151f2c"/>
      <path id="Path_3172" data-name="Path 3172" d="M2972.493,1435.372l-11.783.068a.589.589,0,0,1-.534-.368h0a.276.276,0,0,1,.291-.374l11.783-.068a.589.589,0,0,1,.535.368h0A.276.276,0,0,1,2972.493,1435.372Z" transform="translate(-2947.618 -1396.432)" fill="#151f2c"/>
    </g>
    <g id="Group_3699" data-name="Group 3699" transform="translate(1687.648 475.075)">
      <path id="Path_3173" data-name="Path 3173" d="M2840.992,907.237h0a.172.172,0,0,1-.2-.135l-.188-.974a.171.171,0,0,1,.135-.2h0a.172.172,0,0,1,.2.135l.188.974A.171.171,0,0,1,2840.992,907.237Z" transform="translate(-2838.924 -893.21)" fill="#151f2c"/>
      <rect id="Rectangle_388" data-name="Rectangle 388" width="0.118" height="1.434" transform="translate(1.438 11.086) rotate(-10.953)" fill="#151f2c"/>
      <path id="Path_3174" data-name="Path 3174" d="M2827.229,805.589a4.516,4.516,0,0,0-.347-1.34,1.825,1.825,0,0,0-1.18-.554c-.173.169.514.764.541.984s-.349.068-.168.5a3.351,3.351,0,0,0,.655.83Z" transform="translate(-2825.675 -802.45)" fill="#ee805f"/>
      <path id="Path_3175" data-name="Path 3175" d="M2832.946,817.7c.324-.254.392-.249.392-.249s3,2.6,3.288,2.827,4.791,1.536,4.791,1.536l.716,3.658s-6.089-2.941-6.817-3.541a17.242,17.242,0,0,1-2.719-3.767A1.149,1.149,0,0,1,2832.946,817.7Z" transform="translate(-2831.821 -814.667)" fill="#2b6eb2"/>
      <path id="Path_3176" data-name="Path 3176" d="M2883.315,1128.676a4.539,4.539,0,0,1-.292,1.554l-3.339.02a.522.522,0,0,1,.5-.508,2.243,2.243,0,0,0,1.622-1.28C2882.177,1127.65,2883.315,1128.676,2883.315,1128.676Z" transform="translate(-2873.621 -1090.489)" fill="#151f2c"/>
      <path id="Path_3177" data-name="Path 3177" d="M2939.335,1127.217s.233,1.661-.083,1.69c-.042,0-1.346.025-1.91.034-.665.011-1.755-.012-1.755-.012a.174.174,0,0,1-.157-.261.7.7,0,0,1,.5-.322,2.706,2.706,0,0,0,1.891-1.317C2938.179,1126.212,2939.335,1127.217,2939.335,1127.217Z" transform="translate(-2923.087 -1089.211)" fill="#151f2c"/>
      <path id="Path_3178" data-name="Path 3178" d="M2896.563,954.441a65.915,65.915,0,0,0,3.59,8.892c2.662,5.643,2.777,8.362,2.777,8.362a2.34,2.34,0,0,0,.937.085,2.522,2.522,0,0,0,.986-.32s-.172-6.716-1.429-9.564-1.513-10.64-1.513-10.64Z" transform="translate(-2888.606 -933.454)" fill="#151f2c"/>
      <path id="Path_3179" data-name="Path 3179" d="M2883.27,954.712a80.962,80.962,0,0,0,.8,11.209,36.562,36.562,0,0,1,.463,9.051,1.736,1.736,0,0,0,.94.165,2.108,2.108,0,0,0,1.257-.347s1.246-6.18.889-9.272,1.706-10.61,1.706-10.61Z" transform="translate(-2876.804 -936.521)" fill="#384152"/>
      <path id="Path_3180" data-name="Path 3180" d="M2900.916,830.152l-.984.729-1.421-.3c.02-.129.114-.667.2-1.153.005-.029.011-.057.015-.085.073-.414.137-.77.137-.77l1.327-.661.495-.247c0,.009-.038.459-.043.525A4.242,4.242,0,0,0,2900.916,830.152Z" transform="translate(-2890.334 -823.736)" fill="#ee805f"/>
      <path id="Path_3181" data-name="Path 3181" d="M2888.761,858.881c-.321,1.471-7.2.825-7.113-.073,0-.03.021-.445.045-1.005.052-1.212.131-3.1.142-3.252,0,0,0-.005,0-.008.124-1.25.243-2.473.25-3.271a11.346,11.346,0,0,1,.23-2.043c.117-.593.26-1.132.385-1.552a1.713,1.713,0,0,1,1.006-1.1,1.519,1.519,0,0,1,.167-.058,7.6,7.6,0,0,1,2.234-.437c.822.242,1.434,1.69,1.866,3.536A34.44,34.44,0,0,1,2888.761,858.881Z" transform="translate(-2875.365 -840.068)" fill="#43a1f6"/>
      <path id="Path_3182" data-name="Path 3182" d="M2902.113,830.161a4.04,4.04,0,0,1-1.831,1.218c0-.029.01-.057.015-.086l.136-.77,1.327-.662C2902.054,829.857,2902.233,829.931,2902.113,830.161Z" transform="translate(-2891.907 -825.685)" fill="#de6b4d"/>
      <path id="Path_3183" data-name="Path 3183" d="M2893.519,803.894s2.4.747,2.837-.751,1.05-2.411-.461-2.952-1.978-.057-2.246.408S2892.908,803.661,2893.519,803.894Z" transform="translate(-2885.637 -799.134)" fill="#ee805f"/>
      <path id="Path_3184" data-name="Path 3184" d="M2896.095,793.983s.152,1.744.513,1.668.688-.132.635.394-.553,1.133.558,1.226,2.709-2.773,2.4-3.316C2899.324,792.389,2894.821,792.073,2896.095,793.983Z" transform="translate(-2887.99 -792.664)" fill="#151f2c"/>
      <path id="Path_3185" data-name="Path 3185" d="M2882.066,905.64c.052-1.212.132-3.1.142-3.252,0,0,0-.005,0-.008l4.066-2.431S2886.432,905.624,2882.066,905.64Z" transform="translate(-2875.736 -887.906)" fill="#2b6eb2"/>
      <path id="Path_3186" data-name="Path 3186" d="M2837.281,899.931a10.751,10.751,0,0,0-.983-.608,2.06,2.06,0,0,0-.694-.061c-.024.041-.095.164-.005.207s.2.027.168.056-.371-.131-.449.041-.146.762.25.941a4.532,4.532,0,0,0,1.444.038C2837.611,900.719,2837.281,899.931,2837.281,899.931Z" transform="translate(-2834.183 -887.283)" fill="#ee805f"/>
      <path id="Path_3187" data-name="Path 3187" d="M2851.153,864.16a30.318,30.318,0,0,0,4.39.511c.57-.278-.222-4.369-.222-4.369a1.177,1.177,0,0,1,1.049-1.146,2.607,2.607,0,0,1,1.849.515,2.127,2.127,0,0,1,.721,1.559c-.234,1.817-.6,5.512-1.813,6.079-1.567.731-6.1-2.026-6.1-2.026a.8.8,0,0,1-.13-.528A1.235,1.235,0,0,1,2851.153,864.16Z" transform="translate(-2848.062 -851.664)" fill="#43a1f6"/>
      <path id="Path_3188" data-name="Path 3188" d="M2826.631,811.147s-.258-.513-.3-.609.06-.075.159-.022.234.352.388.316C2827,810.8,2826.631,811.147,2826.631,811.147Z" transform="translate(-2826.249 -808.472)" fill="#ee805f"/>
    </g>
  </g>
</svg>
